<svg width="13" height="24" viewBox="0 0 13 24" fill="none" xmlns="http://www.w3.org/2000/svg">
<g id="&#60;a&#62; facebook">
<path id="Vector" d="M4.04182 23.5V13.08H0.80542V9.98H4.04182V6.1C4.04182 2.5 6.10676 0.5 9.77998 0.5H12.242V3.81H10.7727C10.3977 3.79482 10.0238 3.85972 9.67544 4.00046C9.32711 4.14119 9.01227 4.35456 8.75162 4.62656C8.49096 4.89856 8.29039 5.22303 8.16306 5.57866C8.03574 5.93429 7.98455 6.31303 8.01287 6.69V9.99H12.103L11.3982 13.08H8.01287V23.5H4.04182Z" fill="white"/>
<path id="Vector_2" d="M9.78002 1H11.7655V3.31H10.7728C10.3339 3.29811 9.89737 3.37828 9.49089 3.5454C9.08441 3.71252 8.71687 3.96295 8.4116 4.28079C8.10633 4.59863 7.87001 4.97693 7.71763 5.39168C7.56525 5.80643 7.50015 6.24856 7.52646 6.69V10.5H11.4975L10.9912 12.58H7.52646V23H4.54817V12.58H1.30184V10.5H4.58788V6.1C4.58788 2.81 6.43442 1 9.78002 1ZM9.78002 0C5.58064 0 3.59512 2.5 3.59512 6.1V9.5H0.309082V13.6H3.59512V24H8.55893V13.58H11.845L12.7385 9.5H8.51922V6.69C8.49216 6.37998 8.53101 6.06772 8.63318 5.77401C8.73535 5.48031 8.89849 5.21191 9.11173 4.98671C9.32497 4.7615 9.58341 4.58467 9.86983 4.46798C10.1563 4.35129 10.4641 4.29744 10.7728 4.31H12.7583V0H9.78002Z" fill="white"/>
</g>
</svg>
