<svg width="25" height="24" viewBox="0 0 25 24" fill="none" xmlns="http://www.w3.org/2000/svg">
<g id="&#60;a&#62; instagram">
<path id="Vector" d="M11.4355 23.5C9.97615 23.5 8.50686 23.5 7.0475 23.5C5.93114 23.5542 4.82093 23.3042 3.8338 22.7762C2.84666 22.2482 2.01915 21.4619 1.4384 20.5C0.958824 19.5976 0.645988 18.615 0.515137 17.6V17.48V6.41001C0.645248 5.39166 0.958091 4.40562 1.4384 3.50001C2.01826 2.55588 2.83916 1.7859 3.81535 1.27049C4.79155 0.75509 5.88722 0.513173 6.98794 0.57001C8.64254 0.53001 10.2971 0.51001 11.9517 0.51001C13.6063 0.51001 15.2974 0.53001 17.0248 0.57001C18.0524 0.524427 19.0752 0.73733 20.0007 1.1895C20.9262 1.64168 21.7254 2.31889 22.3261 3.16001C23.1145 4.34031 23.5203 5.73778 23.4876 7.16001C23.4876 10.03 23.567 13.44 23.4876 16.89C23.438 19.62 22.4452 21.5 20.3604 22.62C19.3206 23.1744 18.1615 23.4629 16.985 23.46C15.1286 23.5 13.282 23.5 11.4355 23.5ZM8.97346 1.84001H7.07729C4.26777 1.91001 2.50066 3.26001 1.98442 5.74001C1.86867 6.24874 1.80546 6.76817 1.7958 7.29001V9.18001C1.7958 11.66 1.7958 14.18 1.7958 16.74C1.86529 20.15 3.63241 22.01 6.89859 22.13C8.51679 22.19 10.2045 22.22 11.8624 22.22C13.5302 22.22 15.2775 22.22 17.0347 22.13C19.7151 22.04 21.4227 20.71 21.9985 18.28C22.1029 17.8609 22.1628 17.4318 22.1772 17C22.1772 16.09 22.1772 15.18 22.1772 14.27C22.2712 11.5859 22.2215 8.8987 22.0283 6.22001C21.9647 5.13159 21.5127 4.103 20.7556 3.32382C19.9985 2.54464 18.9872 2.06738 17.9083 1.98001C17.0458 1.86937 16.1767 1.81924 15.3073 1.83001H13.9373H12.5871L8.97346 1.84001Z" fill="white"/>
<path id="Vector_2" d="M11.9617 1C13.6395 1 15.3371 1 17.0248 1.06C17.9741 1.0158 18.9194 1.2102 19.7755 1.62568C20.6317 2.04115 21.3717 2.66465 21.929 3.44C22.6554 4.53305 23.0298 5.82499 23.0012 7.14C23.0012 10 23.0806 13.4 23.0012 16.85C22.9417 19.41 22.0085 21.15 20.1222 22.17C19.1516 22.6824 18.0709 22.9468 16.9752 22.94C15.1286 22.94 13.292 22.94 11.4455 22.94C9.83721 22.94 8.40763 22.94 7.0674 22.94C6.04084 23.0004 5.01695 22.7827 4.10214 22.3097C3.18733 21.8366 2.41498 21.1254 1.86534 20.25C1.41622 19.3928 1.12367 18.4614 1.00163 17.5V6.5C1.1212 5.5394 1.41034 4.60807 1.85541 3.75C2.39668 2.88122 3.15918 2.17441 4.06357 1.70309C4.96796 1.23176 5.98121 1.01316 6.99791 1.07C8.63597 1.07 10.3038 1.01 11.9617 1.01M12.6368 1.37H8.97351H7.0674C4.08912 1.44 2.1036 2.97 1.49802 5.67C1.37556 6.21164 1.30902 6.76458 1.29946 7.32V9.19C1.29946 11.66 1.29946 14.19 1.29946 16.75C1.36896 20.41 3.35448 22.5 6.87878 22.63C8.50691 22.69 10.1946 22.72 11.8922 22.72C13.5898 22.72 15.3172 22.72 17.0844 22.63C19.9733 22.53 21.8893 21.03 22.4651 18.39C22.5772 17.9348 22.6405 17.4688 22.6538 17C22.6538 16.09 22.6538 15.18 22.6538 14.27C22.749 11.5659 22.6993 8.85867 22.5048 6.16C22.42 4.97585 21.9237 3.85966 21.1031 3.00745C20.2825 2.15525 19.19 1.62152 18.0176 1.5C17.1322 1.38422 16.2398 1.33076 15.347 1.34H13.9671H12.6269M11.9617 0C10.3005 0 8.64589 0.02 6.99791 0.06C5.81544 0.0105632 4.6411 0.277925 3.59468 0.834816C2.54826 1.39171 1.66719 2.2182 1.04135 3.23C0.519887 4.22694 0.183454 5.31137 0.048584 6.43V17.58C0.183016 18.6987 0.519474 19.7832 1.04135 20.78C1.6761 21.7996 2.56884 22.6306 3.62786 23.1877C4.68689 23.7448 5.87404 24.0079 7.0674 23.95C8.53669 23.95 10.0457 23.95 11.4653 23.95C13.3119 23.95 15.1584 23.95 17.0049 23.95C18.2646 23.9533 19.5056 23.6442 20.6186 23.05C23.0509 21.72 23.9543 19.49 24.0138 16.87C24.0833 13.62 24.0635 10.37 24.0138 7.12C24.03 5.60601 23.5867 4.12316 22.7431 2.87C22.0953 1.96703 21.2363 1.23905 20.2423 0.750616C19.2482 0.262185 18.1499 0.028401 17.0447 0.07C15.3503 0.0233333 13.656 0 11.9617 0ZM12.6368 2.36C13.5402 2.36 14.4436 2.36 15.357 2.36C16.1997 2.34902 17.0422 2.39579 17.8786 2.5C18.8479 2.56728 19.759 2.99016 20.4396 3.6886C21.1202 4.38704 21.5229 5.31257 21.5716 6.29C21.8893 9.86 21.7007 13.45 21.6808 17.03C21.666 17.4282 21.6094 17.8237 21.5121 18.21C21.0356 20.38 19.5266 21.59 17.0645 21.67C15.3437 21.73 13.6229 21.76 11.9022 21.76C10.1814 21.76 8.52676 21.73 6.93835 21.67C3.96006 21.56 2.38157 19.89 2.31208 16.77C2.24259 13.65 2.31208 10.49 2.31208 7.35C2.32348 6.86517 2.38335 6.38274 2.49078 5.91C2.95737 3.68 4.53586 2.47 7.10712 2.41H8.98343H12.6467L12.6368 2.36Z" fill="white"/>
<path id="Vector_3" d="M11.9517 17.7299C10.4411 17.7194 8.99577 17.1082 7.93037 16.0294C6.86498 14.9506 6.26577 13.4916 6.26318 11.9699C6.28629 10.4664 6.8902 9.03106 7.94673 7.96869C9.00326 6.90633 10.4292 6.30054 11.9219 6.2799H12.0212C12.7876 6.24763 13.5525 6.37181 14.27 6.64497C14.9875 6.91814 15.6427 7.33464 16.1963 7.86943C16.7499 8.40423 17.1904 9.04627 17.4913 9.75695C17.7922 10.4676 17.9473 11.2323 17.9473 12.0049C17.9473 12.7775 17.7922 13.5422 17.4913 14.2529C17.1904 14.9635 16.7499 15.6056 16.1963 16.1404C15.6427 16.6752 14.9875 17.0917 14.27 17.3648C13.5525 17.638 12.7876 17.7622 12.0212 17.7299H11.9517ZM11.9517 7.5999C11.3599 7.57149 10.7685 7.66437 10.2134 7.87293C9.65824 8.08148 9.15091 8.40136 8.7221 8.8132C8.2933 9.22504 7.95194 9.72026 7.7187 10.2689C7.48547 10.8175 7.36521 11.4081 7.36521 12.0049C7.36521 12.6017 7.48547 13.1923 7.7187 13.7409C7.95194 14.2895 8.2933 14.7848 8.7221 15.1966C9.15091 15.6084 9.65824 15.9283 10.2134 16.1369C10.7685 16.3454 11.3599 16.4383 11.9517 16.4099C12.5435 16.4383 13.1349 16.3454 13.69 16.1369C14.2452 15.9283 14.7525 15.6084 15.1813 15.1966C15.6101 14.7848 15.9515 14.2895 16.1847 13.7409C16.4179 13.1923 16.5382 12.6017 16.5382 12.0049C16.5382 11.4081 16.4179 10.8175 16.1847 10.2689C15.9515 9.72026 15.6101 9.22504 15.1813 8.8132C14.7525 8.40136 14.2452 8.08148 13.69 7.87293C13.1349 7.66437 12.5435 7.57149 11.9517 7.5999Z" fill="white"/>
<path id="Vector_4" d="M11.922 6.7799H12.0114C12.7117 6.74904 13.4109 6.86132 14.0669 7.10998C14.723 7.35864 15.3222 7.73854 15.8286 8.22676C16.335 8.71499 16.738 9.30144 17.0133 9.95076C17.2886 10.6001 17.4305 11.2988 17.4305 12.0049C17.4305 12.711 17.2886 13.4097 17.0133 14.059C16.738 14.7084 16.335 15.2948 15.8286 15.783C15.3222 16.2713 14.723 16.6512 14.0669 16.8998C13.4109 17.1485 12.7117 17.2608 12.0114 17.2299H11.9518C10.5728 17.2194 9.25377 16.6609 8.28146 15.6758C7.30915 14.6908 6.76224 13.359 6.75966 11.9699C6.78022 10.5982 7.33102 9.28856 8.295 8.31941C9.25899 7.35026 10.5602 6.79797 11.922 6.7799ZM12.0014 16.9099C12.9611 16.8922 13.8942 16.5895 14.6837 16.0397C15.4733 15.49 16.0842 14.7177 16.4397 13.8197C16.7953 12.9216 16.8797 11.9379 16.6825 10.9917C16.4853 10.0455 16.0151 9.17905 15.3309 8.50095C14.6468 7.82284 13.7791 7.36328 12.8367 7.17988C11.8944 6.99648 10.9192 7.09741 10.0335 7.47C9.14785 7.8426 8.39109 8.47029 7.85814 9.27436C7.32518 10.0784 7.03975 11.0231 7.03764 11.9899C7.03889 12.6424 7.16872 13.2882 7.4196 13.8898C7.67048 14.4913 8.03743 15.0368 8.49916 15.4944C8.96089 15.9521 9.50822 16.3129 10.1094 16.5558C10.7106 16.7988 11.3537 16.9192 12.0014 16.9099ZM11.922 5.7799C10.3259 5.84436 8.81636 6.52839 7.70965 7.68876C6.60294 8.84912 5.98486 10.3958 5.98486 12.0049C5.98486 13.614 6.60294 15.1607 7.70965 16.321C8.81636 17.4814 10.3259 18.1654 11.922 18.2299H11.9915C12.8239 18.2635 13.6545 18.1274 14.4334 17.8297C15.2123 17.532 15.9234 17.0789 16.5242 16.4975C17.1249 15.9162 17.6029 15.2186 17.9294 14.4466C18.2559 13.6745 18.4242 12.844 18.4242 12.0049C18.4242 11.1658 18.2559 10.3353 17.9294 9.56325C17.6029 8.79124 17.1249 8.09362 16.5242 7.51226C15.9234 6.93091 15.2123 6.47779 14.4334 6.1801C13.6545 5.88241 12.8239 5.74629 11.9915 5.7799H11.922ZM12.0014 15.9099C11.4758 15.9367 10.9503 15.8556 10.4568 15.6714C9.96331 15.4873 9.51213 15.204 9.13071 14.8387C8.74928 14.4735 8.44558 14.0339 8.23805 13.5467C8.03052 13.0596 7.9235 12.535 7.9235 12.0049C7.9235 11.4748 8.03052 10.9502 8.23805 10.4631C8.44558 9.9759 8.74928 9.53634 9.13071 9.17109C9.51213 8.80584 9.96331 8.52253 10.4568 8.33839C10.9503 8.15424 11.4758 8.0731 12.0014 8.0999C12.527 8.0731 13.0526 8.15424 13.5461 8.33839C14.0396 8.52253 14.4908 8.80584 14.8722 9.17109C15.2536 9.53634 15.5573 9.9759 15.7648 10.4631C15.9724 10.9502 16.0794 11.4748 16.0794 12.0049C16.0794 12.535 15.9724 13.0596 15.7648 13.5467C15.5573 14.0339 15.2536 14.4735 14.8722 14.8387C14.4908 15.204 14.0396 15.4873 13.5461 15.6714C13.0526 15.8556 12.527 15.9367 12.0014 15.9099Z" fill="white"/>
</g>
</svg>
