<svg width="25" height="25" viewBox="0 0 25 25" fill="none" xmlns="http://www.w3.org/2000/svg">
<g id="&#60;a&#62; whatssap">
<path id="Vector" d="M6.78096 21.4615L7.12843 21.6715C9.45846 23.0603 12.2142 23.5373 14.8708 23.0117C17.5275 22.4862 19.8994 20.9947 21.5349 18.8214C23.1704 16.6481 23.9552 13.9448 23.7398 11.2263C23.5245 8.50784 22.324 5.96409 20.3671 4.07954C18.4102 2.19498 15.8334 1.10127 13.1277 1.00669C10.4219 0.91211 7.77617 1.82327 5.69425 3.56665C3.61234 5.31003 2.23972 7.76383 1.83781 10.4607C1.43591 13.1576 2.03279 15.9092 3.51478 18.1915L3.73319 18.5315L2.32347 23.1015L6.78096 21.4615Z" stroke="white" stroke-width="1.67" stroke-linecap="round" stroke-linejoin="round"/>
<path id="Vector_2" d="M8.09133 5.68164C7.77998 5.79064 7.50263 5.98034 7.28719 6.23164C6.65191 6.89081 6.29592 7.77294 6.29443 8.69164C6.33456 10.1396 6.82409 11.5384 7.69423 12.6916C8.9745 14.9496 10.9407 16.7339 13.3033 17.7816C14.0654 18.137 14.8646 18.4053 15.686 18.5816C16.2069 18.6002 16.7264 18.5152 17.2148 18.3316C17.6759 18.1393 18.0969 17.8611 18.4558 17.5116C18.9115 16.9125 19.1716 16.1858 19.2003 15.4316C19.2003 15.1516 19.2003 15.1116 19.0911 15.0016C18.1475 14.3832 17.1507 13.851 16.1128 13.4116C15.8448 13.4116 15.7356 13.4116 15.2888 13.9716C14.5939 14.7816 14.3854 14.9716 14.2961 14.9716C13.7483 14.7692 13.2253 14.5041 12.7375 14.1816C11.5849 13.399 10.6352 12.3497 9.96765 11.1216C9.92166 11.05 9.88496 10.9727 9.85845 10.8916C9.91942 10.7922 9.9892 10.6985 10.0669 10.6116C10.3534 10.329 10.5768 9.98811 10.7221 9.61164C10.9008 9.17164 10.9008 9.06164 10.6527 8.40164L9.99743 6.61164C9.79888 6.07164 9.64997 5.84164 9.44149 5.75164C8.9979 5.65688 8.54224 5.63326 8.09133 5.68164Z" fill="white"/>
</g>
</svg>
