<svg width="321" height="231" viewBox="0 0 321 231" fill="none" xmlns="http://www.w3.org/2000/svg">
<path d="M186.332 7.5734C134.072 -8.69153 61.061 0.394639 23.1153 43.0858C-11.4644 81.9274 -5.35695 139.739 28.8757 176.344C61.1825 210.885 110.875 226.63 156.958 229.786C203.041 232.942 255.249 222.208 289.065 188.308C301.07 176.441 310.023 161.846 315.159 145.77C320.295 129.694 321.462 112.615 318.561 95.9901C310.493 49.9697 272.859 16.6942 229.986 2.57947C214.041 -2.62253 207.205 22.4338 223.046 27.6531C255.734 38.456 284.259 62.9401 292.309 97.4814C294.99 109.433 294.788 121.85 291.72 133.708C288.651 145.566 282.805 156.525 274.664 165.68C249.055 194.499 208.211 204.539 170.127 204.261C131.383 203.984 88.5791 193.008 58.8749 168.766C30.8363 145.843 14.0063 107.469 33.9421 72.2343C47.2673 48.6692 73.6749 36.4098 99.0761 30.6183C125.276 24.584 153.678 24.7053 179.427 32.7164C195.459 37.7103 202.312 12.602 186.367 7.64276L186.332 7.5734Z" fill="#E8237D"/>
</svg>
