<svg xmlns="http://www.w3.org/2000/svg" width="321" height="258" viewBox="0 0 321 258" version="1.1"><path d="M 113 1.054 C 85.449 4.468, 58.304 14.453, 40.486 27.728 C 30.092 35.472, 18.330 47.912, 13.136 56.655 C 3.932 72.148, -0.627 90.975, 0.342 109.500 C 2.582 152.343, 29.166 188.018, 75.241 210.011 C 86.019 215.156, 106.694 222.467, 113.516 223.546 L 117.532 224.181 116.703 210.840 C 116.248 203.503, 115.565 197.218, 115.187 196.874 C 114.809 196.530, 110.675 195.005, 106 193.486 C 51.915 175.906, 18.751 132.880, 27.491 91.628 C 34.961 56.369, 70.580 32.672, 123.409 27.815 C 139.354 26.349, 158.143 27.788, 172.693 31.590 C 186.195 35.118, 190.825 34.106, 194.602 26.802 C 197.599 21.008, 195.216 11.792, 190 9 C 186.439 7.094, 179 5.083, 167.500 2.916 C 154.867 0.535, 125.326 -0.474, 113 1.054 M 219.095 4.574 C 213.600 9.197, 212.583 18.658, 216.981 24.249 C 218.142 25.725, 222.304 27.981, 227.437 29.919 C 237.355 33.662, 235.585 34.301, 248.470 22.329 L 257.265 14.158 250.382 10.705 C 241 5.996, 229.584 2, 225.517 2 C 223.362 2, 221.054 2.925, 219.095 4.574 M 268.911 38.560 L 259.323 47.053 267.960 55.776 C 281.529 69.480, 289.131 82.972, 292.433 99.208 C 300.048 136.658, 279.666 172.597, 240.660 190.499 C 221.554 199.269, 203.461 202.985, 176.244 203.731 L 156.987 204.259 153.016 216.818 C 150.831 223.726, 149.243 229.576, 149.485 229.819 C 149.728 230.062, 157.072 230.488, 165.804 230.767 C 217.925 232.430, 263.405 216.466, 291.847 186.524 C 326.077 150.489, 330.368 96.919, 302.395 54.842 C 297.356 47.262, 281.500 29.978, 279.636 30.034 C 279.011 30.053, 274.185 33.890, 268.911 38.560" stroke="none" fill="#eb247b" fill-rule="evenodd"/><path d="M 273.507 1.573 C 267.784 4.557, 252.950 17.496, 230.613 38.987 C 198.540 69.845, 164.371 119.050, 146.043 160.772 C 143.591 166.352, 141.369 170.703, 141.106 170.439 C 140.842 170.175, 139.602 153.676, 138.350 133.775 C 137.097 113.873, 135.547 96.320, 134.904 94.769 C 130.619 84.423, 112.294 85.175, 109.718 95.802 C 109.199 97.942, 115.404 200.686, 116.461 207.450 C 116.723 209.128, 117.200 217.925, 117.520 227 C 118.164 245.207, 118.921 249.465, 122.124 252.903 C 124.566 255.523, 129.882 258, 133.067 258 C 136.152 258, 141.905 255.047, 143.074 252.862 C 143.626 251.830, 145.196 246.376, 146.562 240.743 C 150.951 222.637, 154.038 212.857, 160.681 196 C 172.155 166.885, 183.798 144.099, 199.656 119.722 C 214.863 96.347, 227.068 81.178, 248.914 58.500 C 264.140 42.694, 272.192 35.274, 282.878 27.203 C 291.019 21.054, 293.566 16.911, 292.441 11.646 C 290.353 1.870, 281.733 -2.716, 273.507 1.573" stroke="none" fill="#3cd32c" fill-rule="evenodd"/></svg>