<svg width="181" height="42" viewBox="0 0 181 42" fill="none" xmlns="http://www.w3.org/2000/svg">
<rect width="181" height="41.0342" fill="black"/>
<path d="M44.4131 24.5518C44.6475 22.5986 44.833 21.0947 44.9697 20.04C45.1064 18.9854 45.2041 18.2041 45.2627 17.6963C45.3408 17.1104 45.3799 16.7686 45.3799 16.6709C45.5557 16.0654 45.7412 15.4111 45.9365 14.708C46.1318 14.0049 46.3857 13.3506 46.6982 12.7451C47.0303 12.1396 47.4502 11.6318 47.958 11.2217C48.4658 10.8115 49.1201 10.6064 49.9209 10.6064C50.2725 10.6064 50.585 10.6357 50.8584 10.6943C51.1514 10.7334 51.4248 10.8115 51.6787 10.9287C51.9326 11.0459 52.1768 11.1924 52.4111 11.3682C52.665 11.5244 52.9287 11.7197 53.2021 11.9541C53.3975 12.1299 53.5049 12.2373 53.5244 12.2764C53.5635 12.3154 53.583 12.4326 53.583 12.6279C53.583 12.8818 53.4951 13.126 53.3193 13.3604C53.1436 13.5947 52.8896 13.7119 52.5576 13.7119C52.2842 13.7119 52.0596 13.6533 51.8838 13.5361C51.708 13.3994 51.5322 13.2529 51.3564 13.0967C51.2002 12.9209 51.0244 12.7744 50.8291 12.6572C50.6533 12.5205 50.4189 12.4521 50.126 12.4521C49.8135 12.4521 49.54 12.54 49.3057 12.7158C49.0713 12.8721 48.8662 13.0771 48.6904 13.3311C48.5342 13.585 48.4072 13.8682 48.3096 14.1807C48.2314 14.4932 48.1729 14.7861 48.1338 15.0596L46.7568 24.4346C46.7568 24.4736 46.7471 24.5713 46.7275 24.7275C46.7275 24.8643 46.7275 24.9717 46.7275 25.0498C46.7275 25.1865 46.7275 25.3623 46.7275 25.5771C46.7275 25.7725 46.7471 25.9775 46.7861 26.1924C46.8252 26.3877 46.8936 26.5635 46.9912 26.7197C47.0889 26.8564 47.2354 26.9248 47.4307 26.9248C47.5479 26.9248 47.6553 26.8857 47.7529 26.8076C48.6904 26.1826 49.4912 25.46 50.1553 24.6396C50.8389 23.7998 51.4834 22.9111 52.0889 21.9736C52.1084 21.9346 52.1572 21.8467 52.2354 21.71C52.333 21.5537 52.4209 21.3975 52.499 21.2412C52.5967 21.0654 52.6846 20.8994 52.7627 20.7432C52.8408 20.5674 52.8994 20.4404 52.9385 20.3623C53.0557 20.1084 53.1436 19.8447 53.2021 19.5713C53.2607 19.2979 53.3291 19.0439 53.4072 18.8096C53.5049 18.5752 53.6416 18.3896 53.8174 18.2529C53.9932 18.0967 54.2666 18.0186 54.6377 18.0186C54.9111 18.0186 55.1748 18.1357 55.4287 18.3701C55.6826 18.6045 55.8096 18.8779 55.8096 19.1904V19.249C55.3213 20.6553 54.6865 21.9541 53.9053 23.1455C53.1436 24.3369 52.2939 25.5186 51.3564 26.6904C50.7705 27.3936 50.0967 27.96 49.335 28.3896C48.5732 28.8193 47.7236 29.0342 46.7861 29.0342H46.6396C45.7607 28.7021 45.165 28.2139 44.8525 27.5693C44.5596 26.9053 44.4131 26.1338 44.4131 25.2549V24.5518ZM58.6279 24.5518L59.7119 17.0225C59.751 16.7686 59.8584 16.583 60.0342 16.4658C60.2295 16.3486 60.4443 16.29 60.6787 16.29C61.1084 16.29 61.4502 16.417 61.7041 16.6709C61.958 16.9053 62.1729 17.1982 62.3486 17.5498H62.3779C62.6123 17.5498 62.8174 17.5107 62.9932 17.4326C63.1885 17.335 63.4229 17.2861 63.6963 17.2861C64.3213 17.2861 64.8486 17.4814 65.2783 17.8721C65.7275 18.2627 66.0889 18.7412 66.3623 19.3076C66.6357 19.8545 66.8311 20.4502 66.9482 21.0947C67.085 21.7393 67.1533 22.3057 67.1533 22.7939C67.1533 23.3799 66.9971 24.0342 66.6846 24.7568C66.3916 25.4795 65.9912 26.1631 65.4834 26.8076C64.9951 27.4521 64.4385 27.9893 63.8135 28.4189C63.1885 28.8486 62.5537 29.0635 61.9092 29.0635C61.3232 29.0635 60.8154 28.9268 60.3857 28.6533C59.9756 28.3799 59.6338 28.0381 59.3604 27.6279C59.1064 27.1982 58.9209 26.7197 58.8037 26.1924C58.6865 25.665 58.6279 25.1475 58.6279 24.6396V24.5518ZM61.0889 24.7275C61.1279 24.9229 61.167 25.1475 61.2061 25.4014C61.2451 25.6553 61.3037 25.8896 61.3818 26.1045C61.46 26.2998 61.5674 26.4561 61.7041 26.5732C61.8604 26.6709 62.0752 26.6709 62.3486 26.5732C62.6025 26.3389 62.876 26.0752 63.1689 25.7822C63.4619 25.4893 63.7354 25.1768 63.9893 24.8447C64.2627 24.5127 64.4873 24.1611 64.6631 23.79C64.8389 23.4189 64.9268 23.0283 64.9268 22.6182C65.0049 21.9541 64.9561 21.3486 64.7803 20.8018C64.6045 20.2354 64.3506 19.835 64.0186 19.6006C63.7061 19.3467 63.3447 19.3174 62.9346 19.5127C62.5244 19.6885 62.1143 20.1865 61.7041 21.0068C61.4697 21.5146 61.3037 22.1104 61.2061 22.7939C61.1279 23.458 61.0889 24.0732 61.0889 24.6396V24.7275ZM70.3818 19.4834C70.3428 18.9756 70.2939 18.4678 70.2354 17.96C70.1963 17.4326 70.1279 16.915 70.0303 16.4072C70.0303 15.9775 70.167 15.7041 70.4404 15.5869C70.7334 15.4697 71.0459 15.4111 71.3779 15.4111H71.9639C72.2568 15.5479 72.4619 15.7139 72.5791 15.9092C72.6963 16.1045 72.7744 16.3193 72.8135 16.5537C72.8525 16.7881 72.8623 17.0322 72.8428 17.2861C72.8428 17.54 72.8525 17.7842 72.8721 18.0186C72.8916 18.1162 72.9014 18.2822 72.9014 18.5166C72.9014 18.751 72.9014 18.9951 72.9014 19.249C72.9209 19.5029 72.9404 19.7373 72.96 19.9521C72.999 20.167 73.0479 20.3037 73.1064 20.3623L75.6846 15.5283C75.8018 15.3135 75.9678 15.1377 76.1826 15.001C76.417 14.8447 76.6709 14.7861 76.9443 14.8252C77.374 14.8643 77.6963 14.9521 77.9111 15.0889C78.126 15.2061 78.2725 15.3721 78.3506 15.5869C78.4482 15.7822 78.4971 16.0264 78.4971 16.3193C78.5166 16.6123 78.5361 16.9346 78.5557 17.2861C78.5557 17.4033 78.5654 17.6279 78.585 17.96C78.6045 18.2725 78.624 18.6045 78.6436 18.9561C78.6826 19.3076 78.7119 19.6396 78.7314 19.9521C78.7705 20.2646 78.7998 20.4795 78.8193 20.5967H78.9365C78.9756 20.46 79.0439 20.1963 79.1416 19.8057C79.2588 19.415 79.3857 19.0049 79.5225 18.5752C79.6592 18.1455 79.7861 17.7354 79.9033 17.3447C80.0205 16.9541 80.1084 16.6807 80.167 16.5244C80.1865 16.4854 80.2256 16.4072 80.2842 16.29C80.3428 16.1533 80.4014 16.0166 80.46 15.8799C80.5186 15.7236 80.5771 15.5869 80.6357 15.4697C80.6943 15.333 80.7334 15.2354 80.7529 15.1768C80.8896 14.9619 81.0264 14.8545 81.1631 14.8545C81.3193 14.835 81.4854 14.8252 81.6611 14.8252C82.1494 14.8252 82.5205 14.9521 82.7744 15.2061C83.0479 15.4404 83.2432 15.7432 83.3604 16.1143C83.4971 16.4854 83.5947 16.8955 83.6533 17.3447C83.7119 17.7744 83.7803 18.1748 83.8584 18.5459C83.8779 18.5459 83.8877 18.5654 83.8877 18.6045C83.8877 18.624 83.8779 18.6436 83.8584 18.6631L85.4697 27.1885C85.5479 27.2666 85.5869 27.335 85.5869 27.3936C85.6064 27.4521 85.6162 27.5303 85.6162 27.6279C85.6162 27.8428 85.5088 28.0576 85.2939 28.2725C85.0986 28.4678 84.8936 28.5654 84.6787 28.5654C84.3857 28.5654 84.0439 28.458 83.6533 28.2432C83.2822 28.0283 83.0674 27.7549 83.0088 27.4229L81.6611 20.4795L81.5146 20.2451C81.4756 20.3428 81.3877 20.626 81.251 21.0947C81.1338 21.5439 80.9873 22.1201 80.8115 22.8232C80.6357 23.5068 80.4307 24.2783 80.1963 25.1377C79.9814 25.9971 79.7568 26.876 79.5225 27.7744C79.4834 27.9502 79.3662 28.0869 79.1709 28.1846C78.9951 28.2627 78.8389 28.3018 78.7021 28.3018C78.292 28.3018 77.96 28.2529 77.7061 28.1553C77.4521 28.0576 77.2568 27.9111 77.1201 27.7158C76.9834 27.5205 76.8857 27.2861 76.8271 27.0127C76.7686 26.7393 76.7197 26.4268 76.6807 26.0752C76.6807 25.9971 76.6611 25.7236 76.6221 25.2549C76.583 24.7666 76.5342 24.2197 76.4756 23.6143C76.4365 22.9893 76.3877 22.3643 76.3291 21.7393C76.2705 21.1143 76.2314 20.6162 76.2119 20.2451C76.2119 20.167 76.2119 20.1084 76.2119 20.0693C76.2119 20.0303 76.2119 20.001 76.2119 19.9814C76.2119 19.9424 76.2021 19.9033 76.1826 19.8643C76.1631 19.8057 76.124 19.7178 76.0654 19.6006L75.2158 21.6221L73.8682 26.5732L73.5752 28.3896C73.5557 28.5068 73.4971 28.6143 73.3994 28.7119C73.3213 28.79 73.2236 28.8584 73.1064 28.917C72.9893 28.9561 72.8721 28.9854 72.7549 29.0049C72.6377 29.0244 72.54 29.0342 72.4619 29.0342C72.0322 29.0342 71.6611 28.8779 71.3486 28.5654C71.0557 28.2529 70.8994 27.9111 70.8799 27.54C70.8604 27.4033 70.8408 27.1396 70.8213 26.749C70.8018 26.3389 70.7725 25.8604 70.7334 25.3135C70.6943 24.7666 70.6553 24.1904 70.6162 23.585C70.5967 22.9795 70.5674 22.4033 70.5283 21.8564C70.4893 21.3096 70.4502 20.8311 70.4111 20.4209C70.3916 20.0107 70.3818 19.7373 70.3818 19.6006V19.4834ZM89.4014 23.7607C89.0303 23.624 88.6885 23.458 88.376 23.2627C88.083 23.0674 87.9365 22.7451 87.9365 22.2959C87.9365 22.1787 87.9658 22.1006 88.0244 22.0615C88.083 22.0225 88.1318 21.9639 88.1709 21.8857C88.21 21.8271 88.2881 21.7197 88.4053 21.5635C88.5225 21.4072 88.6494 21.2412 88.7861 21.0654C88.9229 20.8701 89.0498 20.6943 89.167 20.5381C89.2842 20.3623 89.3623 20.2451 89.4014 20.1865C89.4014 19.9326 89.3818 19.6299 89.3428 19.2783C89.3232 18.9072 89.333 18.5654 89.3721 18.2529C89.4307 17.9209 89.5479 17.6475 89.7236 17.4326C89.8994 17.1982 90.1924 17.0811 90.6025 17.0811C90.8369 17.0811 91.0322 17.1689 91.1885 17.3447C91.3447 17.501 91.54 17.5791 91.7744 17.5791H91.8916C92.6924 16.9541 93.5127 16.4072 94.3525 15.9385C95.2119 15.4502 96.1689 15.2061 97.2236 15.2061C97.9072 15.2061 98.4639 15.4111 98.8936 15.8213C99.3428 16.2119 99.5674 16.7686 99.5674 17.4912C99.5674 18.3896 99.3623 19.3174 98.9521 20.2744C98.542 21.2314 98.0244 22.1689 97.3994 23.0869C96.7939 23.9854 96.1299 24.835 95.4072 25.6357C94.7041 26.4365 94.0596 27.1299 93.4736 27.7158C93.415 27.7939 93.3271 27.8818 93.21 27.9795C93.0928 28.0576 92.9854 28.1455 92.8877 28.2432C92.7705 28.3408 92.6436 28.458 92.5068 28.5947L92.2725 35.333C92.2725 35.5088 92.2627 35.6943 92.2432 35.8896C92.2432 36.085 92.2041 36.2607 92.126 36.417C92.0674 36.5928 91.9697 36.7295 91.833 36.8271C91.7158 36.9443 91.54 37.0029 91.3057 37.0029C91.1885 37.0029 91.0322 36.9736 90.8369 36.915C90.6416 36.876 90.4561 36.8076 90.2803 36.71C90.1045 36.6123 89.9482 36.4951 89.8115 36.3584C89.6943 36.2217 89.6357 36.0654 89.6357 35.8896L89.4014 23.7607ZM92.126 25.6064H92.2432C92.2627 25.6064 92.3213 25.5479 92.4189 25.4307C92.5361 25.3135 92.6631 25.1768 92.7998 25.0205C92.9561 24.8643 93.1025 24.708 93.2393 24.5518C93.3955 24.376 93.5127 24.2393 93.5908 24.1416C94.1768 23.7119 94.7139 23.1748 95.2021 22.5303C95.6904 21.8857 96.0811 21.2412 96.374 20.5967C96.6865 19.9326 96.8721 19.3369 96.9307 18.8096C97.0088 18.2822 96.9209 17.9209 96.667 17.7256C96.4326 17.5107 96.0127 17.5303 95.4072 17.7842C94.8213 18.0381 94.0205 18.624 93.0049 19.542C92.7705 19.7373 92.5557 19.9619 92.3604 20.2158C92.165 20.4697 92.0479 20.7529 92.0088 21.0654L92.126 25.6064ZM103.646 27.7744C103.606 27.0713 103.538 26.1338 103.44 24.9619C103.362 23.7705 103.265 22.54 103.147 21.2705C103.05 20.001 102.942 18.7998 102.825 17.667C102.708 16.5342 102.61 15.6553 102.532 15.0303C102.532 14.7764 102.649 14.6104 102.884 14.5322C103.118 14.4541 103.343 14.415 103.558 14.415C103.831 14.415 104.114 14.4932 104.407 14.6494C104.72 14.8057 104.915 15.0205 104.993 15.2939C104.993 15.3721 105.003 15.5186 105.022 15.7334C105.042 15.9287 105.052 16.1338 105.052 16.3486C105.071 16.5635 105.091 16.7783 105.11 16.9932C105.13 17.1885 105.14 17.3252 105.14 17.4033C105.14 17.5205 105.14 17.6084 105.14 17.667C105.14 17.7256 105.14 17.7842 105.14 17.8428C105.14 17.8818 105.149 17.9307 105.169 17.9893C105.188 18.0479 105.218 18.1455 105.257 18.2822C105.296 18.2432 105.335 18.1943 105.374 18.1357C105.433 18.0771 105.472 18.0381 105.491 18.0186C105.804 17.5693 106.106 17.1787 106.399 16.8467C106.692 16.4951 106.995 16.1729 107.308 15.8799C107.62 15.5674 107.962 15.2451 108.333 14.9131C108.724 14.5615 109.173 14.1611 109.681 13.7119C109.798 13.6143 109.886 13.5459 109.944 13.5068C110.003 13.4482 110.052 13.4092 110.091 13.3896C110.149 13.3506 110.208 13.3311 110.267 13.3311C110.325 13.3115 110.403 13.3018 110.501 13.3018C110.833 13.3018 111.165 13.4189 111.497 13.6533C111.849 13.8682 112.024 14.1709 112.024 14.5615C112.024 14.6982 111.976 14.8447 111.878 15.001C111.78 15.1377 111.663 15.2744 111.526 15.4111C111.39 15.5283 111.243 15.6357 111.087 15.7334C110.95 15.8311 110.823 15.8994 110.706 15.9385C110.198 16.3877 109.661 16.9053 109.095 17.4912C108.528 18.0576 108.001 18.6729 107.513 19.3369C107.024 20.001 106.624 20.6943 106.312 21.417C105.999 22.1396 105.843 22.8623 105.843 23.585C105.843 24.249 105.892 24.9033 105.989 25.5479C106.087 26.1924 106.136 26.8467 106.136 27.5107V28.5361C105.979 28.6924 105.843 28.8193 105.726 28.917C105.608 29.0146 105.442 29.0635 105.228 29.0635C104.896 29.0635 104.573 28.9268 104.261 28.6533C103.948 28.3604 103.743 28.0674 103.646 27.7744ZM121.112 20.8604C120.937 21.1729 120.731 21.5537 120.497 22.0029C120.282 22.4326 120.048 22.9014 119.794 23.4092C119.54 23.8975 119.257 24.3955 118.944 24.9033C118.651 25.3916 118.339 25.8408 118.007 26.251C117.694 26.6611 117.362 27.0127 117.011 27.3057C116.659 27.5791 116.298 27.7451 115.927 27.8037C115.771 27.8037 115.595 27.7939 115.399 27.7744C115.204 27.7354 115.009 27.6865 114.813 27.6279C114.618 27.5498 114.452 27.4521 114.315 27.335C114.198 27.1982 114.14 27.0225 114.14 26.8076C114.159 24.8154 114.306 23.0088 114.579 21.3877C114.853 19.7471 115.282 18.3115 115.868 17.0811C116.454 15.8311 117.206 14.7959 118.124 13.9756C119.042 13.1553 120.155 12.5693 121.464 12.2178C121.503 12.2178 121.571 12.2178 121.669 12.2178C121.786 12.1982 121.864 12.1885 121.903 12.1885C122.489 12.1689 122.909 12.4424 123.163 13.0088C123.437 13.5557 123.632 14.4346 123.749 15.6455C123.886 16.8369 123.974 18.3799 124.013 20.2744C124.071 22.1494 124.179 24.4053 124.335 27.042C124.394 27.2568 124.423 27.4424 124.423 27.5986C124.442 27.7549 124.452 27.9404 124.452 28.1553C124.452 28.4482 124.364 28.6729 124.188 28.8291C124.013 28.9658 123.788 29.0342 123.515 29.0342C122.948 29.0342 122.548 28.8779 122.313 28.5654C122.079 28.2529 121.923 27.833 121.845 27.3057C121.845 27.2861 121.825 27.1299 121.786 26.8369C121.767 26.5439 121.728 26.2119 121.669 25.8408C121.63 25.4502 121.591 25.0596 121.552 24.6689C121.513 24.2783 121.483 23.9561 121.464 23.7021V23.585C121.425 23.3896 121.396 23.1455 121.376 22.8525C121.376 22.5596 121.356 22.2764 121.317 22.0029C121.278 21.6709 121.249 21.3389 121.229 21.0068L121.112 20.8604ZM120.468 15.0596C119.94 15.4502 119.423 15.9775 118.915 16.6416C118.407 17.3057 118.046 17.9502 117.831 18.5752C117.733 18.8682 117.626 19.2686 117.509 19.7764C117.392 20.2842 117.284 20.792 117.187 21.2998C117.108 21.7881 117.04 22.2471 116.981 22.6768C116.923 23.0869 116.894 23.3506 116.894 23.4678C116.913 23.4678 116.933 23.4482 116.952 23.4092C116.991 23.3701 117.021 23.3408 117.04 23.3213C118.251 22.1494 119.101 20.8896 119.589 19.542C120.097 18.1748 120.39 16.6807 120.468 15.0596ZM128.794 27.7744C128.755 27.0713 128.687 26.1338 128.589 24.9619C128.511 23.7705 128.413 22.54 128.296 21.2705C128.198 20.001 128.091 18.7998 127.974 17.667C127.856 16.5342 127.759 15.6553 127.681 15.0303C127.681 14.7764 127.798 14.6104 128.032 14.5322C128.267 14.4541 128.491 14.415 128.706 14.415C128.979 14.415 129.263 14.4932 129.556 14.6494C129.868 14.8057 130.063 15.0205 130.142 15.2939C130.142 15.3721 130.151 15.5186 130.171 15.7334C130.19 15.9287 130.2 16.1338 130.2 16.3486C130.22 16.5635 130.239 16.7783 130.259 16.9932C130.278 17.1885 130.288 17.3252 130.288 17.4033C130.288 17.5205 130.288 17.6084 130.288 17.667C130.288 17.7256 130.288 17.7842 130.288 17.8428C130.288 17.8818 130.298 17.9307 130.317 17.9893C130.337 18.0479 130.366 18.1455 130.405 18.2822C130.444 18.2432 130.483 18.1943 130.522 18.1357C130.581 18.0771 130.62 18.0381 130.64 18.0186C130.952 17.5693 131.255 17.1787 131.548 16.8467C131.841 16.4951 132.144 16.1729 132.456 15.8799C132.769 15.5674 133.11 15.2451 133.481 14.9131C133.872 14.5615 134.321 14.1611 134.829 13.7119C134.946 13.6143 135.034 13.5459 135.093 13.5068C135.151 13.4482 135.2 13.4092 135.239 13.3896C135.298 13.3506 135.356 13.3311 135.415 13.3311C135.474 13.3115 135.552 13.3018 135.649 13.3018C135.981 13.3018 136.313 13.4189 136.646 13.6533C136.997 13.8682 137.173 14.1709 137.173 14.5615C137.173 14.6982 137.124 14.8447 137.026 15.001C136.929 15.1377 136.812 15.2744 136.675 15.4111C136.538 15.5283 136.392 15.6357 136.235 15.7334C136.099 15.8311 135.972 15.8994 135.854 15.9385C135.347 16.3877 134.81 16.9053 134.243 17.4912C133.677 18.0576 133.149 18.6729 132.661 19.3369C132.173 20.001 131.772 20.6943 131.46 21.417C131.147 22.1396 130.991 22.8623 130.991 23.585C130.991 24.249 131.04 24.9033 131.138 25.5479C131.235 26.1924 131.284 26.8467 131.284 27.5107V28.5361C131.128 28.6924 130.991 28.8193 130.874 28.917C130.757 29.0146 130.591 29.0635 130.376 29.0635C130.044 29.0635 129.722 28.9268 129.409 28.6533C129.097 28.3604 128.892 28.0674 128.794 27.7744Z" fill="white"/>
</svg>
