<svg width="29" height="27" viewBox="0 0 29 27" fill="none" xmlns="http://www.w3.org/2000/svg">
<path d="M5.06787 3.42588C5.06787 6.33605 5.52336 13.9378 6.43451 15.7073C7.34567 17.4768 8.08968 19.9361 11.6884 20.7835C16.266 21.163 22.2024 20.7821 24.8309 20.7821C27.4595 20.7821 28.3357 18.0957 25.7071 17.2017C23.0786 16.3077 16.0694 17.4534 11.6884 16.5579C7.30747 15.6625 8 0.708439 8 0.708439C8 -0.410472 5.06787 0.515712 5.06787 3.42588Z" fill="#3DD12F"/>
<path d="M9.5 3.86843C10.3276 3.46833 17.7749 2.97315 22.1558 3.86843C26.5367 4.76371 25.0855 10.2292 22.206 10.6352C19.3265 11.0413 9.74482 11.4784 8.91452 8.94902C8.08423 6.41967 7.5712 10.5842 8.44739 12.375C9.32358 14.1659 22.5573 14.3681 25.6298 13.3219C28.7022 12.2757 29.8165 5.14489 27.1214 2.17694C24.4263 -0.791016 5.91684 0.137868 2.60658 0.137555C-0.703673 0.137242 -0.920173 3.86843 2.29676 3.86843C3.14318 3.86843 5.31634 3.63225 5.37037 5.64868C5.4244 7.66511 5.60689 6.25475 5.60689 8.94108C6.43819 9.6593 8.34546 8.94751 8.91452 8.94902C8.08423 6.41967 8.67241 4.26853 9.5 3.86843Z" fill="#3DD12F"/>
<path d="M12.9538 26.7086C13.6509 26.7086 14.3191 26.316 14.812 25.8121C15.305 25.3083 15.5819 24.6251 15.5819 23.9126C15.5819 23.2001 15.4113 22.6266 14.9183 22.1227C14.4254 21.6189 13.7568 21.3359 13.0597 21.3359C12.3625 21.3359 11.6939 21.6189 11.201 22.1227C10.708 22.6266 10.3252 23.3098 10.3252 24.0223C10.3252 24.7348 10.6021 25.418 11.0951 25.9218C11.588 26.4256 12.2566 26.7086 12.9538 26.7086Z" fill="#3DD12F"/>
<path d="M23.4674 26.7086C24.1646 26.7086 24.8328 26.316 25.3257 25.8121C25.8187 25.3083 26.0956 24.6251 26.0956 23.9126C26.0956 23.2001 25.925 22.6266 25.432 22.1227C24.9391 21.6189 24.2705 21.3359 23.5733 21.3359C22.8762 21.3359 22.2076 21.6189 21.7147 22.1227C21.2217 22.6266 20.8389 23.3098 20.8389 24.0223C20.8389 24.7348 21.1158 25.418 21.6088 25.9218C22.1017 26.4256 22.7703 26.7086 23.4674 26.7086Z" fill="#3DD12F"/>
</svg>
