<svg id="Capa_1" data-name="Capa 1" xmlns="http://www.w3.org/2000/svg" viewBox="0 0 200 200"><defs><style>.cls-1{fill:#e8237d;}</style></defs><title>corazon</title><path class="cls-1" d="M94.24,71.61C83.81,43,44.25,29,20.46,50.79,4.69,65.2,13,86.35,19.91,103.06c7.49,18.16,17,35.31,27.33,52,5.25,8.45,10.58,16.89,16.15,25.12,2.72,4,5.94,7.3,11.14,6.94,4.8-.33,9.63-3.87,13.82-6,18.63-9.45,37.34-18.76,55.89-28.37,16.17-8.38,32.77-19,40.66-36.13a44.28,44.28,0,0,0-5-46.08C168,54.76,148.7,47.12,129.17,48.95c-17.26,1.61-31.39,9.49-46,18.18-8.28,4.94-.75,17.91,7.57,13,10.85-6.47,21.21-12.93,33.82-15.43,14.79-2.93,30.21.56,40.73,11.71,10,10.6,11.66,24.93,4.11,37.41-8.86,14.63-25.35,22.26-40,29.71l-29.52,15L86,165.5c-4.3,2.18-9.78,6.26-14.45,7h4q2.49,2,.32-.66l-2-3-3.95-6.06q-3.94-6.08-7.81-12.21c-4.81-7.66-9.49-15.41-13.89-23.31-8.7-15.65-17.41-32.58-21.42-50.15-1.84-8.06.87-14.2,8-18.32a28.7,28.7,0,0,1,17.31-3.43c11.8,1.19,23.53,8.93,27.66,20.29C83.05,84.59,97.55,80.71,94.24,71.61Z"/></svg>