<?xml version="1.0" encoding="utf-8"?>
<!-- Generator: Adobe Illustrator 24.3.0, SVG Export Plug-In . SVG Version: 6.00 Build 0)  -->
<svg version="1.1" id="Capa_1" xmlns="http://www.w3.org/2000/svg" xmlns:xlink="http://www.w3.org/1999/xlink" x="0px" y="0px"
	 viewBox="0 0 200 200" style="enable-background:new 0 0 200 200;" xml:space="preserve">
<style type="text/css">
	.st0{fill:#03DD12;}
</style>
<path class="st0" d="M55.6,145c24.1-36.2,41-76.7,50-119.3l-13.7,1.8c18.2,41.7,35.2,83.9,50.9,126.7l12.5-7.3
	c-39.2-36.6-89.2-59.7-142.5-66l2,14.7L189,62.1l-5.8-13.7c-27.3,15-54.3,30.6-80.9,46.8c-13.2,8-26.2,16.3-39.2,24.6
	c-4.5,2.9-9.6,5.5-13.3,9.4c-2,2.2-4,4.4-6,6.6c-6.5,7.1,4.1,17.8,10.6,10.6l5.8-6.4c3.4-3.7,8.7-6.1,12.9-8.9
	c12.7-8.2,25.5-16.2,38.4-24.1c26-15.9,52.5-31.2,79.2-45.8c7.8-4.3,2.2-15.2-5.8-13.7L10.8,81.1c-3.7,0.7-5.8,4.8-5.4,8.2
	c0.5,4,3.6,6.1,7.4,6.5c49.4,6.1,95.5,27.6,131.9,61.6c5.1,4.8,15.3,0.1,12.5-7.3c-16.2-43.9-33.6-87.3-52.4-130.2
	c-2.6-5.9-12.4-4.2-13.7,1.8C82.5,63,66,102.3,42.7,137.4C37.3,145.5,50.3,153,55.6,145z"/>
</svg>
