<svg id="Capa_1" data-name="Capa 1" xmlns="http://www.w3.org/2000/svg" viewBox="0 0 200 200"><defs><style>.cls-1{fill:#e8237d;}</style></defs><title>estrella</title><path class="cls-1" d="M55.62,145a343,343,0,0,0,50-119.29L91.88,27.48Q119.25,90,142.77,154.13l12.54-7.3a251.83,251.83,0,0,0-142.48-66l2,14.73L189,62.12l-5.78-13.71q-41,22.43-80.9,46.82Q82.59,107.3,63.16,119.85c-4.5,2.91-9.59,5.49-13.29,9.41-2.05,2.17-4,4.42-6,6.63-6.48,7.13,4.1,17.77,10.61,10.61l5.77-6.36c3.38-3.72,8.66-6.15,12.94-8.9q19-12.26,38.37-24.06,39.07-23.86,79.25-45.81c7.82-4.28,2.23-15.25-5.78-13.71L10.83,81.1c-3.66.7-5.83,4.81-5.37,8.23.54,4,3.6,6.06,7.37,6.5A234.87,234.87,0,0,1,144.7,157.44c5.08,4.76,15.26.13,12.54-7.3Q133,84.24,104.83,19.91c-2.58-5.89-12.45-4.2-13.71,1.79A331.46,331.46,0,0,1,42.67,137.41C37.31,145.47,50.3,153,55.62,145Z"/></svg>