<svg width="69" height="41" viewBox="0 0 69 41" fill="none" xmlns="http://www.w3.org/2000/svg">
<path d="M18.8389 26.3412C12.6164 27.1485 10.5631 17.6882 15.7142 14.9959C29.3555 7.95749 44.0055 3.41501 59.0395 0.159791C66.8287 -1.494 70.1542 10.196 62.3516 11.876L7.74196 23.6576V11.9894C27.9018 15.0842 47.4775 21.0977 65.8244 29.8321C73.0155 33.2313 66.7172 43.6951 59.5751 40.3483C42.1419 32.1631 23.5595 26.56 4.43878 23.7231C-1.67657 22.7936 -1.27929 13.2505 4.43878 12.0287L59.0484 0.247062L62.3605 11.9414C48.3756 14.9523 34.6852 18.9886 21.9903 25.5383L18.8657 14.193" fill="#E8237D"/>
</svg>
