<svg id="Capa_1" data-name="Capa 1" xmlns="http://www.w3.org/2000/svg" viewBox="0 0 200 200"><defs><style>.cls-1{fill:#e8237d;}</style></defs><title>flechavolver</title><path class="cls-1" d="M106.56,166.83c18.39-1.08,39.07-3.36,55.07-13.34,11.41-7.12,19.3-20,17.82-33.75-1.71-15.85-13.18-25.37-27.18-31-16-6.45-33.43-9.13-50.55-10.3a290.79,290.79,0,0,0-58,2.16l3.79,14C64.13,85.79,82,80.38,100.31,76.36l-4-14.46L25.12,77.62c-6.9,1.53-7.4,13.32,0,14.46a254.25,254.25,0,0,1,72,22.25c8.65,4.19,16.27-8.74,7.57-13A267,267,0,0,0,29.11,77.62V92.09l71.21-15.73c9.42-2.08,5.43-16.54-4-14.46C76.78,66.19,57.69,72.23,40,81.6c-6.21,3.28-3.75,15,3.79,14,29-3.85,59.59-4.71,88.13,2.37,10.6,2.63,25.11,6,30.69,16.49,4.41,8.32,1.35,18-5.54,23.94-6,5.14-14.42,7.58-21.92,9.49a151.68,151.68,0,0,1-28.54,4c-9.59.56-9.66,15.57,0,15Z"/></svg>