<svg id="Capa_1" data-name="Capa 1" xmlns="http://www.w3.org/2000/svg" viewBox="0 0 200 200"><defs><style>.cls-1{fill:#e8237d;}</style></defs><title>flecha</title><path class="cls-1" d="M23.51,123.08c25.54.3,51.09-.83,76.61-1.34,23.48-.47,47.58-1.61,70.93,1.45,7.52,1,10-10.7,3.79-14-16.5-8.7-34.21-14.32-52.38-18.32-9.41-2.07-13.43,12.38-4,14.46l66,14.58V105.47a248.31,248.31,0,0,0-70.2,22.08c-8.69,4.2-1.09,17.14,7.57,13a235.56,235.56,0,0,1,66.62-20.56c7.39-1.15,6.91-12.94,0-14.46l-66-14.58-4,14.46c16.9,3.72,33.44,8.71,48.79,16.81l3.79-14c-23.35-3.06-47.45-1.92-70.93-1.45-25.53.51-51.08,1.64-76.61,1.34-9.66-.11-9.66,14.89,0,15Z"/></svg>