<svg width="69" height="41" viewBox="0 0 69 41" fill="none" xmlns="http://www.w3.org/2000/svg">
<path d="M50.1611 26.3412C56.3836 27.1485 58.4369 17.6882 53.2858 14.9959C39.6445 7.95749 24.9945 3.41501 9.96051 0.159791C2.17125 -1.494 -1.15425 10.196 6.6484 11.876L61.258 23.6576V11.9894C41.0982 15.0842 21.5225 21.0977 3.1756 29.8321C-4.01552 33.2313 2.28285 43.6951 9.42486 40.3483C26.8581 32.1631 45.4405 26.56 64.5612 23.7231C70.6766 22.7936 70.2793 13.2505 64.5612 12.0287L9.95159 0.247062L6.63947 11.9414C20.6244 14.9523 34.3148 18.9886 47.0097 25.5383L50.1343 14.193" fill="#E8237D"/>
</svg>
