<svg width="19" height="25" viewBox="0 0 19 25" fill="none" xmlns="http://www.w3.org/2000/svg">
<path d="M14.7778 6.25V5.20833C14.7778 2.33177 12.4149 0 9.5 0C6.58508 0 4.22222 2.33177 4.22222 5.20833V6.25H0V21.875C0 23.6016 1.41708 25 3.16667 25H15.8333C17.5829 25 19 23.6016 19 21.875V6.25H14.7778ZM6.33333 5.20833C6.33333 3.48255 7.75121 2.08333 9.5 2.08333C11.2488 2.08333 12.6667 3.48255 12.6667 5.20833V6.25H6.33333V5.20833ZM16.8889 21.875C16.8889 22.4505 16.4165 22.9167 15.8333 22.9167H3.16667C2.58347 22.9167 2.11111 22.4505 2.11111 21.875V8.33333H16.8889V21.875Z" fill="white"/>
</svg>
