<svg width="22" height="25" viewBox="0 0 22 25" fill="none" xmlns="http://www.w3.org/2000/svg">
<path d="M20.7777 7.52092L13.4445 0.953774C12.7722 0.339565 11.9019 0 11 0C10.0981 0 9.22786 0.339565 8.55561 0.953774L1.22233 7.52092C0.834116 7.87558 0.524323 8.31067 0.313579 8.79719C0.102835 9.28372 -0.00402421 9.81053 0.000115859 10.3425V21.2545C0.000115859 22.2479 0.386422 23.2005 1.07405 23.903C1.76168 24.6054 2.6943 25 3.66676 25H18.3333C19.3058 25 20.2384 24.6054 20.926 23.903C21.6137 23.2005 22 22.2479 22 21.2545V10.3301C22.0024 9.80014 21.8947 9.27574 21.684 8.7915C21.4733 8.30725 21.1644 7.87419 20.7777 7.52092ZM13.4445 22.503H8.55561V16.2605C8.55561 15.9293 8.68438 15.6118 8.91359 15.3776C9.1428 15.1435 9.45367 15.012 9.77782 15.012H12.2222C12.5464 15.012 12.8573 15.1435 13.0865 15.3776C13.3157 15.6118 13.4445 15.9293 13.4445 16.2605V22.503ZM19.5555 21.2545C19.5555 21.5856 19.4268 21.9032 19.1976 22.1373C18.9683 22.3715 18.6575 22.503 18.3333 22.503H15.8889V16.2605C15.8889 15.2671 15.5026 14.3144 14.815 13.612C14.1273 12.9096 13.1947 12.5149 12.2222 12.5149H9.77782C8.80537 12.5149 7.87275 12.9096 7.18512 13.612C6.49749 14.3144 6.11118 15.2671 6.11118 16.2605V22.503H3.66676C3.34261 22.503 3.03173 22.3715 2.80252 22.1373C2.57331 21.9032 2.44454 21.5856 2.44454 21.2545V10.3301C2.44476 10.1528 2.48193 9.9776 2.55359 9.81614C2.62524 9.65469 2.72972 9.51067 2.8601 9.39367L10.1934 2.83902C10.4164 2.63886 10.7032 2.52847 11 2.52847C11.2969 2.52847 11.5837 2.63886 11.8067 2.83902L19.14 9.39367C19.2704 9.51067 19.3748 9.65469 19.4465 9.81614C19.5181 9.9776 19.5553 10.1528 19.5555 10.3301V21.2545Z" fill="white"/>
</svg>
