<svg width="25" height="25" viewBox="0 0 25 25" fill="none" xmlns="http://www.w3.org/2000/svg">
<path d="M18.6698 6.34834e-07H16.9299L16.5721 0.362501L12.5 4.4875L8.44028 0.362501L8.07009 6.34834e-07H6.33021C5.00632 -0.000644114 3.72803 0.489845 2.73678 1.37882C1.74554 2.2678 1.10998 3.49371 0.950148 4.825L0 12.5H5.09625V25H19.9038V12.5H25L24.0499 4.825C23.8875 3.49479 23.2512 2.27043 22.2605 1.38196C21.2698 0.493483 19.9929 0.00205335 18.6698 6.34834e-07ZM19.9038 10V7.5H17.4358V22.5H7.56417V7.5H5.09625V10H2.78875L3.39339 5.1375C3.47817 4.40943 3.82427 3.73836 4.3658 3.25202C4.90734 2.76567 5.6065 2.49802 6.33021 2.5H7.05824L12.5 8.0125L17.9418 2.5H18.6698C19.3909 2.50036 20.087 2.76721 20.6277 3.25049C21.1684 3.73377 21.5165 4.40028 21.6066 5.125L22.2113 10H19.9038Z" fill="white"/>
</svg>
