<svg width="71" height="64" viewBox="0 0 71 64" fill="none" xmlns="http://www.w3.org/2000/svg">
<path d="M13.0187 18.7565C11.986 25.6079 10.005 32.2342 7.74153 38.7653C6.62621 41.9771 5.44824 45.1727 4.30148 48.3719C3.25866 51.2839 1.28254 54.922 1.49089 58.0783C1.71951 61.5097 4.85913 62.9381 7.89345 63.0085C11.6351 63.0922 15.413 62.8504 19.1548 62.7607C26.6084 62.5732 34.0635 62.3857 41.5201 62.1981C49.9983 61.97 58.4762 61.7256 66.9536 61.4648C68.6645 61.4218 70.3726 59.8581 70.2026 58.0482C69.0738 45.9375 68.5327 33.7973 68.5793 21.6274C68.5913 18.3944 63.7656 17.1063 62.3157 20.0997C60.5731 23.7518 58.5552 27.2661 56.2794 30.612C55.1558 32.2559 53.9597 33.8467 52.6911 35.3845C52.0497 36.1655 51.3931 36.9334 50.7214 37.6885C50.3327 38.1429 49.5796 39.3179 48.9875 39.4662L50.765 39.4215C51.4574 39.5464 51.2089 40.273 51.1724 39.3535C51.0551 38.6514 50.871 37.9622 50.6226 37.2952C50.3341 36.1968 50.0514 35.0952 49.7747 33.9905C49.1549 31.5072 48.5705 29.017 48.0215 26.52C46.9507 21.6616 46.0126 16.7763 45.2072 11.8638C44.7456 9.06967 40.2017 8.73488 39.0948 11.2217C36.848 16.2939 34.4228 21.2876 31.8192 26.2028C30.5795 28.5343 29.3037 30.8446 27.9917 33.1334C27.2987 34.3366 26.5879 35.5402 25.8593 36.7443C25.433 37.4754 24.7839 39.0702 24.02 39.4585L25.693 38.9718C26.9022 39.9048 27.2269 39.9677 26.6671 39.1607C26.4179 38.6808 26.173 38.1979 25.9325 37.7118C25.5811 37.0003 25.2341 36.2843 24.909 35.5588C24.0922 33.6673 23.3331 31.7744 22.6626 29.8659C21.336 26.1696 20.2618 22.3876 19.4475 18.5458C18.5462 14.3576 12.1698 16.3011 13.0666 20.485C14.2391 26.0548 15.9623 31.4943 18.2107 36.7233C19.858 40.5192 23.1693 49.1245 28.6299 44.3627C30.4358 42.7965 31.5626 40.2159 32.7607 38.1759C34.2389 35.6575 35.6689 33.1137 37.0509 30.5444C39.8828 25.2796 42.5106 19.9132 44.9342 14.4452L38.8218 13.8031C39.7974 19.7073 40.9541 25.5624 42.2918 31.3686C42.9337 34.1389 43.6167 36.8979 44.3409 39.6454C44.9653 42.0175 45.708 44.6712 48.2316 45.6526C50.9259 46.7009 53.0447 45.0202 54.7714 43.1359C56.5621 41.1759 58.2529 39.1269 59.8372 36.9967C63.039 32.7193 65.8187 28.1418 68.1374 23.3282L61.8738 21.8005C61.8269 33.9556 62.368 46.0959 63.4971 58.2213L66.7461 54.8047C49.5008 55.3334 32.2525 55.797 15.001 56.1954C12.9569 56.2469 10.9084 56.2984 8.8598 56.3499C8.37099 56.3622 7.88218 56.3745 7.39337 56.3868C6.60227 56.1666 6.85241 56.565 8.14377 57.5819C8.3955 57.5133 8.99867 54.9769 9.11038 54.645C10.3541 51.0565 11.6688 47.4662 12.9525 43.8767C15.6946 36.2175 18.2388 28.4743 19.4765 20.4038C20.113 16.1902 13.6421 14.5522 13.0061 18.7879L13.0187 18.7565Z" fill="#3DD12F"/>
<path d="M16.2494 12.1385C20.5376 12.0306 20.3788 5.36477 16.0817 5.47288C11.7846 5.58098 11.9523 12.2466 16.2494 12.1385Z" fill="#3DD12F"/>
<path d="M41.4779 7.50188C45.7661 7.39399 45.6073 0.728172 41.3102 0.836279C37.0131 0.944385 37.1808 7.60998 41.4779 7.50188Z" fill="#3DD12F"/>
<path d="M65.0424 16.2467C69.3306 16.1389 69.1718 9.47305 64.8747 9.58115C60.5776 9.68926 60.7453 16.3549 65.0424 16.2467Z" fill="#3DD12F"/>
</svg>
