<svg width="152" height="148" viewBox="0 0 152 148" fill="none" xmlns="http://www.w3.org/2000/svg">
<path d="M95.9066 134.543C74.5886 146.675 39.8407 146.131 20.9246 122.132C3.69034 100.299 5.03948 69.0804 17.3671 45.5118C29.0015 23.2717 52.2504 11.98 71.7543 8.01607C91.2581 4.0521 113.935 13.2697 130.531 32.1618C136.413 38.7681 137.405 41.2757 140.615 50.7229C143.825 60.1701 145.401 70.3992 145.209 80.5367C144.662 108.601 132.522 125.479 115.082 135.896C108.593 139.742 102.238 129.804 108.682 125.952C121.976 117.985 132.628 101.969 133.892 80.8149C134.284 73.5003 133.414 66.0345 131.355 59.0337C129.295 52.0329 126.104 45.6979 122.046 40.5516C109.279 24.3503 90.7095 17.2223 74.4439 19.0953C57.8964 20.9977 40.7618 32.4363 29.5906 48.3595C19.0484 63.4148 14.2728 87.2685 25.0185 107.586C32.2019 121.175 44.2657 127.372 55.4913 129.72C67.0734 132.179 79.2094 130.834 89.7129 124.858C96.2524 121.134 102.411 130.843 95.9066 134.543Z" fill="#E8237D"/>
<path d="M103.917 97.1561C103.32 89.1205 103.058 78.8155 97.8656 72.1191C92.6731 65.4227 80.5362 65.8803 73.4759 65.8803C66.4156 65.8803 57.7825 66.7991 52.7395 72.5283C47.6964 78.2574 49.4895 89.9017 49.5642 97.3422C49.5739 97.9626 49.7063 98.5751 49.9538 99.1446C50.2012 99.7142 50.5589 100.23 51.0064 100.661C51.4539 101.093 51.9824 101.433 52.5618 101.661C53.1412 101.89 53.7601 102.002 54.3831 101.992L99.2105 101.806C100.449 101.806 101.637 101.316 102.512 100.444C103.388 99.5723 103.88 98.3895 103.88 97.1561C103.88 95.9228 103.388 94.74 102.512 93.8679C101.637 92.9958 100.449 92.5059 99.2105 92.5059L54.3831 92.6919L58.9032 97.3422C58.3152 92.3991 58.3152 87.4043 58.9032 82.4613C60.771 75.4673 69.8524 73.3201 75.3437 73.3201C79.3408 73.3201 88.6852 73.3201 92.154 80.7612C93.4599 83.5626 94.3168 92.6175 94.541 96.9701C95.0266 103.071 104.366 103.146 103.917 97.1561Z" fill="#3DD12F"/>
<path d="M65.4083 53.495C66.3544 47.8601 73.7724 46.0847 78.4654 47.8215C83.1584 49.5583 86.555 54.1116 83.7165 60.7031C80.878 65.6913 70.6311 66.3474 67.1114 61.0212C63.5916 55.695 55.4246 59.0555 58.8308 64.1501C65.8703 74.8026 79.5194 76.0913 88.4512 68.4494C92.8794 64.3244 94.0476 59.2081 93.2942 52.8816C92.9795 50.2383 92.05 47.7101 90.5832 45.5073C89.1164 43.3046 87.1547 41.4912 84.8615 40.2181C75.854 34.8147 60.8666 37.748 56.9306 48.4776C53.4487 57.9722 59.0435 69.3184 69.527 71.4797C75.469 72.6762 77.3961 65.3466 71.4163 64.1501C69.5239 63.5071 64.2293 60.3289 65.4083 53.495Z" fill="#3DD12F"/>
</svg>
