<svg width="280" height="273" viewBox="0 0 280 273" fill="none" xmlns="http://www.w3.org/2000/svg">
<path d="M176.938 247.948C137.381 270.459 72.9049 269.449 37.8053 224.918C5.82652 184.406 8.3299 126.479 31.2044 82.7466C52.7924 41.4791 95.9317 20.527 132.122 13.1717C168.312 5.81641 210.39 22.9201 241.185 57.975C252.098 70.2333 253.94 74.8863 259.896 92.4159C265.852 109.946 268.777 128.926 268.421 147.737C267.406 199.811 244.88 231.129 212.518 250.459C200.477 257.595 188.686 239.154 200.642 232.007C225.311 217.223 245.075 187.504 247.42 148.253C248.148 134.68 246.534 120.827 242.713 107.837C238.891 94.8468 232.971 83.0919 225.44 73.5427C201.751 43.4806 167.294 30.2543 137.113 33.7296C106.408 37.2598 74.6141 58.4843 53.8855 88.0305C34.324 115.966 25.4627 160.228 45.4019 197.928C58.7309 223.142 81.1157 234.641 101.945 238.999C123.436 243.562 145.955 241.065 165.445 229.977C177.579 223.066 189.007 241.083 176.938 247.948Z" fill="#E8237D"/>
<path d="M191.802 178.575C190.693 163.664 190.207 144.543 180.573 132.117C170.938 119.692 148.417 120.541 135.316 120.541C122.216 120.541 106.197 122.246 96.8391 132.877C87.4815 143.507 90.8087 165.114 90.9473 178.92C90.9654 180.071 91.211 181.208 91.6701 182.264C92.1293 183.321 92.793 184.277 93.6234 185.079C94.4537 185.88 95.4344 186.511 96.5095 186.934C97.5846 187.358 98.7329 187.567 99.889 187.549L183.068 187.203C185.366 187.203 187.57 186.294 189.195 184.676C190.82 183.058 191.732 180.863 191.732 178.575C191.732 176.286 190.82 174.091 189.195 172.473C187.57 170.855 185.366 169.946 183.068 169.946L99.889 170.291L108.276 178.92C107.185 169.748 107.185 160.48 108.276 151.308C111.742 138.33 128.593 134.346 138.782 134.346C146.199 134.346 163.538 134.346 169.974 148.153C172.397 153.351 173.988 170.153 174.403 178.229C175.305 189.55 192.634 189.688 191.802 178.575Z" fill="#3DD12F"/>
<path d="M120.347 97.5601C122.102 87.1041 135.867 83.8098 144.575 87.0325C153.283 90.2552 159.585 98.7042 154.318 110.935C149.051 120.191 130.038 121.408 123.507 111.525C116.976 101.642 101.821 107.878 108.142 117.331C121.204 137.097 146.53 139.488 163.104 125.308C171.32 117.654 173.488 108.161 172.09 96.4217C171.506 91.5171 169.781 86.8258 167.06 82.7386C164.338 78.6513 160.698 75.2864 156.443 72.9242C139.729 62.8979 111.919 68.3407 104.616 88.25C98.1551 105.868 108.537 126.921 127.989 130.931C139.015 133.151 142.59 119.551 131.495 117.331C127.983 116.138 118.159 110.24 120.347 97.5601Z" fill="#3DD12F"/>
</svg>
