<svg id="Capa_1" data-name="Capa 1" xmlns="http://www.w3.org/2000/svg" viewBox="0 0 252 150"><defs><style>.cls-1{fill:#3dd12f;}.cls-2{fill:#e8237d;}</style></defs><title>logo</title><path class="cls-1" d="M51.73,39.36c-.18,16.15-.74,32.29-1.58,48.42-.34,6.43,9.66,6.41,10,0,.84-16.13,1.4-32.27,1.58-48.42.07-6.44-9.93-6.44-10,0Z"/><path class="cls-1" d="M46.67,46.49C58.27,42.67,71.11,40,83.39,40.91c4.52.35,9.68,1.79,8.53,7.37C90.84,53.51,85.86,58.1,82,61.5,64.34,77.29,40.26,86.21,18.63,95.1c-5.87,2.41-3.3,12.09,2.66,9.64C35.63,98.85,50,93,63.67,85.59c12.4-6.7,25.74-14.65,33.93-26.46,7.52-10.83,5-24.6-9-27.54-14.24-3-31.07.79-44.6,5.26-6.08,2-3.48,11.67,2.66,9.64Z"/><path class="cls-1" d="M104.91,40.47q.16,26.73-.07,53.46c-.06,6.44,9.94,6.44,10,0q.23-26.73.07-53.46c0-6.43-10-6.45-10,0Z"/><path class="cls-1" d="M107.77,42.86a80.49,80.49,0,0,1,11.72-2.12c3-.2,7.6-.65,6.4,3.44-1.11,3.79-4.15,7.42-6.33,10.65-3.12,4.62-6.48,9.06-10,13.35-4.06,4.88,2.76,11.94,7.07,7.07,2.27-2.57,12-11.82,13.56-5.16s-1.45,14.79-3.36,21c-4.57,14.82-15.17,31.51-8.42,47.1,2.55,5.89,11.17.8,8.63-5-3.63-8.38,2.22-19.07,5.15-27,3.2-8.64,6.32-17.48,7.65-26.63,1-6.88,1.29-16.36-5.64-20.45-8.29-4.9-19.3,3.05-24.65,9.1l7.07,7.07a188.87,188.87,0,0,0,14.56-19.89c2.84-4.5,6.12-9.9,4.86-15.48-3.05-13.51-21.67-8.68-30.9-6.65-6.28,1.38-3.62,11,2.66,9.64Z"/><path class="cls-1" d="M146.56,93.45c6.43,0,6.45-10,0-10s-6.45,10,0,10Z"/><path class="cls-2" d="M164.79,36.39v55c0,6.43,10,6.45,10,0v-55c0-6.43-10-6.45-10,0Z"/><path class="cls-2" d="M146.69,47.53a539.22,539.22,0,0,0,57.51-8.71c6.3-1.31,3.63-10.95-2.66-9.64a514.18,514.18,0,0,1-54.86,8.35c-6.35.62-6.41,10.62,0,10Z"/><path class="cls-2" d="M157.85,70.76A395.93,395.93,0,0,1,200.94,70c6.44.23,6.43-9.77,0-10a395.93,395.93,0,0,0-43.09.81c-6.38.47-6.43,10.47,0,10Z"/><path class="cls-2" d="M211,17.93q-.09,39-1.72,78.07c-.27,6.43,9.73,6.42,10,0q1.63-39,1.72-78.07c0-6.44-10-6.44-10,0Z"/><path class="cls-2" d="M225.48,56.79a244.71,244.71,0,0,0,.88,29.63c.58,6.36,10.58,6.42,10,0a244.71,244.71,0,0,1-.88-29.63c.2-6.44-9.8-6.43-10,0Z"/><path class="cls-2" d="M229.36,48.65c6.43,0,6.45-10,0-10s-6.45,10,0,10Z"/></svg>