<svg width="30" height="24" viewBox="0 0 30 24" fill="none" xmlns="http://www.w3.org/2000/svg">
<path d="M24.1585 16.7935C22.1893 15.5144 22.0527 14.2852 22.4588 12.8786C22.8648 11.4719 22.9587 9.99716 22.7342 8.55241C22.5097 7.10766 21.9719 5.72606 21.1567 4.49957C19.2151 2.1779 16.4658 0.632012 13.4311 0.155598C10.3964 -0.320816 7.28789 0.305444 4.69603 1.9154C3.56341 2.66295 2.59302 3.62055 1.84028 4.73352C0.136114 7.25323 -0.36525 10.1993 0.256455 13.1446C0.576215 14.6595 1.06887 15.6901 1.83631 16.7935C3.76561 19.292 6.47615 21.2993 11.2986 21.2993C16.1211 21.2993 18.0391 18.9251 20.4503 19.7082C23.2765 19.2677 18.8113 14.4959 17.2652 15.812C15.0083 17.7331 11.3027 17.5766 8.89145 16.7935C4.328 15.3114 2.54313 11.1192 4.88727 7.54359C5.82541 6.11262 7.23869 5.03823 8.89145 4.49957C10.5442 3.96092 12.3365 3.99055 13.9696 4.58354C18.4063 6.00875 19.5652 9.77705 18.5364 13.6611C17.9738 15.8068 16.2055 15.5875 17.7326 17.5766C19.5991 17.3838 16.8804 18.2158 18.9252 18.95C20.97 19.6842 23.3392 21.8844 26.0864 23.4558C28.144 25.022 30.6498 22.8654 29.8461 21.2993C28.9612 19.575 25.762 17.835 24.1585 16.7935Z" fill="#3DD12F"/>
</svg>
