<?xml version="1.0" encoding="utf-8"?>
<!-- Generator: Adobe Illustrator 16.0.0, SVG Export Plug-In . SVG Version: 6.00 Build 0)  -->
<!DOCTYPE svg PUBLIC "-//W3C//DTD SVG 1.1//EN" "http://www.w3.org/Graphics/SVG/1.1/DTD/svg11.dtd">
<svg version="1.1" id="Capa_1" xmlns="http://www.w3.org/2000/svg" xmlns:xlink="http://www.w3.org/1999/xlink" x="0px" y="0px"
	 width="800px" height="800px" viewBox="0 0 800 800" enable-background="new 0 0 800 800" xml:space="preserve">
<path fill="#03DD12" d="M116.28,365.12h615.44c38.6,0,38.68-60,0-60H116.28C77.68,305.12,77.6,365.12,116.28,365.12z"/>
<path fill="#03DD12" d="M68,528h543.039c38.601,0,38.681-60,0-60H68C29.4,468,29.32,528,68,528z"/>
<path fill="#03DD12" d="M546.159,110.52L322.88,684c-5.92,15.2,6.52,32.761,20.96,36.921c16.92,4.84,31.04-5.921,36.92-20.96
	L604,126.48c5.92-15.2-6.521-32.76-20.961-36.92c-16.92-4.84-31.039,5.92-36.92,20.96H546.159z"/>
<path fill="#03DD12" d="M376,97.36L179,603.4c-5.92,15.2,6.52,32.76,20.96,36.92c16.92,4.84,31.04-5.92,36.92-20.96l197-506.04
	c5.92-15.2-6.521-32.76-20.96-36.92C396,71.6,381.88,82.36,376,97.36z"/>
</svg>
