<svg id="Capa_1" data-name="Capa 1" xmlns="http://www.w3.org/2000/svg" viewBox="0 0 200 200"><defs><style>.cls-1{fill:#e8237d;}</style></defs><title>numeral</title><path class="cls-1" d="M29.07,91.28H182.93c9.65,0,9.67-15,0-15H29.07c-9.65,0-9.67,15,0,15Z"/><path class="cls-1" d="M17,132H152.76c9.65,0,9.67-15,0-15H17c-9.65,0-9.67,15,0,15Z"/><path class="cls-1" d="M136.54,27.63,80.72,171c-1.48,3.8,1.63,8.19,5.24,9.23,4.23,1.21,7.76-1.48,9.23-5.24L151,31.62c1.48-3.8-1.63-8.19-5.24-9.23-4.23-1.21-7.76,1.48-9.23,5.24Z"/><path class="cls-1" d="M94,24.34,44.75,150.85c-1.48,3.8,1.63,8.19,5.24,9.23,4.23,1.21,7.76-1.48,9.23-5.24L108.47,28.33c1.48-3.8-1.63-8.19-5.24-9.23C99,17.9,95.47,20.59,94,24.34Z"/></svg>