<svg id="Capa_1" data-name="Capa 1" xmlns="http://www.w3.org/2000/svg" viewBox="0 0 200 200"><defs><style>.cls-1{fill:#e8237d;}</style></defs><title>rayo</title><path class="cls-1" d="M108.44,10.76,33.68,91.35c-4,4.33-1.57,13.5,5.3,12.8l33.33-3.38L88,99.18l8.82-.9,3.92-.4q.81-.09,1.63-.15,1.9,0-1-1.07l-1-3.79c.35,2.87-2.6,5.75-4.09,8.06q-3.69,5.72-7.42,11.41-7.73,11.78-15.67,23.43-15.59,22.9-31.94,45.27c-5,6.81,6.53,15.8,11.78,9.09,33-42.2,73.61-77.44,114-112.36,5.36-4.63.6-12.3-5.3-12.8Q129,62.17,96.19,61.7l5.3,12.8a280.21,280.21,0,0,1,47.75-44.12c4.71-3.42,4.89-9.57,0-13a56.55,56.55,0,0,0-33.44-10c-9.64.2-9.67,15.2,0,15a42.83,42.83,0,0,1,25.87,7.91v-13A296.18,296.18,0,0,0,90.89,63.89c-4.16,4.83-1.5,12.7,5.3,12.8Q129,77.17,161.66,80l-5.3-12.8c-40.38,34.92-80.95,70.16-114,112.36l11.78,9.09c20-27.44,39.64-55.38,57.66-84.2,3.44-5.51,5.7-13,.5-18.26-5.48-5.6-14.55-3-21.37-2.29L39,89.16l5.3,12.8,74.76-80.59c6.56-7.07-4-17.7-10.61-10.61Z"/></svg>