<svg width="23" height="27" viewBox="0 0 23 27" fill="none" xmlns="http://www.w3.org/2000/svg">
<path d="M22.9934 24.9913C22.7423 21.6543 22.6324 17.3748 20.4506 14.5939C18.2689 11.813 13.1692 12.003 10.2026 12.003C7.23598 12.003 3.60854 12.3846 1.48954 14.7638C-0.629453 17.143 0.123968 21.9787 0.155361 25.0686C0.159451 25.3262 0.215072 25.5806 0.319049 25.8171C0.423025 26.0536 0.57332 26.2677 0.761349 26.447C0.949377 26.6263 1.17146 26.7674 1.4149 26.8623C1.65835 26.9571 1.91839 27.0038 2.18018 26.9998L21.0157 26.9225C21.5361 26.9225 22.0351 26.719 22.4031 26.3569C22.771 25.9947 22.9777 25.5035 22.9777 24.9913C22.9777 24.4791 22.771 23.9879 22.4031 23.6258C22.0351 23.2636 21.5361 23.0601 21.0157 23.0601L2.18018 23.1374L4.07943 25.0686C3.83235 23.0158 3.83235 20.9415 4.07943 18.8888C4.86424 15.9843 8.68004 15.0926 10.9874 15.0926C12.6669 15.0926 16.5932 15.0926 18.0507 18.1828C18.5994 19.3462 18.9595 23.1065 19.0537 24.9141C19.2577 27.4478 23.1818 27.4787 22.9934 24.9913Z" fill="#3DD12F"/>
<path d="M6.87386 6.68113C7.27166 4.31664 10.3905 3.57167 12.3636 4.30045C14.3367 5.02923 15.7648 6.93986 14.5714 9.70571C13.3779 11.7988 9.06975 12.0741 7.58991 9.83918C6.11007 7.60425 2.67632 9.01434 4.10843 11.1521C7.06811 15.6219 12.8067 16.1627 16.562 12.9561C18.4238 11.2252 18.915 9.07836 18.5982 6.4237C18.4659 5.31459 18.0751 4.2537 17.4584 3.32942C16.8417 2.40513 16.0169 1.6442 15.0528 1.11001C11.2656 -1.15731 4.96439 0.073521 3.30951 4.57576C1.84558 8.55976 4.19786 13.3207 8.60556 14.2277C11.1038 14.7297 11.914 11.6541 9.39987 11.1521C8.60425 10.8823 6.3782 9.54865 6.87386 6.68113Z" fill="#3DD12F"/>
</svg>
